# xmcd
#
# Track frame offsets:
#        150
#        18090
#        41010
#        59372
#        76205
#        88155
#        103957
#        132100
#        142105
#        165095
#        185367
#        198327
#        210400
#        222027
#        238010
#
# Disc length: 3404 seconds
#
# Revision: 0
# Processed by: cddbd v1.5.1PL0 Copyright (c) Steve Scherf et al.
# Submitted via: ExactAudioCopy v0.95a5
#
DISCID=c70d4a0f
DTITLE=Various Artist - aile
DYEAR=2001
DGENRE=Easy Listening
TTITLE0=Criara - Your Voice Is The Wind
TTITLE1=Enigma - The Child In Us
TTITLE2=Sacred Spirit - Yeha-Noha
TTITLE3=Graeme Revel and Roger Mason - The Ocean
TTITLE4=Adiemas - Hymn
TTITLE5=Micheal O Suilleabhain - Woodbrook
TTITLE6=Penguin Cafe Orchestra - Penguin Cafe Single
TTITLE7=Martin Denny - Bamboo Lullaby
TTITLE8=Eric Serra - The Legend Of Manatees
TTITLE9=Brian Eno With Daniel Lanois and Roger Eno - Weightless
TTITLE10=Madredeus - Viagens Interditas
TTITLE11=Meireles E Sua Orchestra - Nuvens Douradas
TTITLE12=Joao Donato - A Ra
TTITLE13=Ivan Lins - Velas Icadas
TTITLE14=Brian Eno With Daniel Lanois and Roger Eno - Always Returning
EXTD=
EXTT0=
EXTT1=
EXTT2=
EXTT3=
EXTT4=
EXTT5=
EXTT6=
EXTT7=
EXTT8=
EXTT9=
EXTT10=
EXTT11=
EXTT12=
EXTT13=
EXTT14=
PLAYORDER=
